<svg xmlns="http://www.w3.org/2000/svg" width="480" height="480" viewBox="0 0 256 256"><g fill="none" fill-rule="none" stroke-miterlimit="10" font-family="none" font-weight="none" font-size="none" text-anchor="none" style="mix-blend-mode:normal"><path d="M185.648 174.459a38.4 38.4 0 0 1 14.613 8.229 2.67 2.67 0 0 1 1.227 2.059c0 1.253-.933 2.485-2.859 3.658q-5.19 3.472-9.99 7.456-4.74 3.867-9.908 7.13a3.2 3.2 0 0 1-1.44.374 2.67 2.67 0 0 1-1.9-.746 2.347 2.347 0 0 1-.228-3.318l.069-.074a10.7 10.7 0 0 1 4.085-3.206 35 35 0 0 0 5.344-3.605c2.672-2.032 4.272-3.392 5.344-4.005 2.112-1.067 3.206-1.82 3.206-2.272a.53.53 0 0 0 0-.294 10.67 10.67 0 0 0-5.771-4.597 278 278 0 0 1-7.237-2.139 13.1 13.1 0 0 1-6.358-3.712.8.8 0 0 1 0-.506 3 3 0 0 1 1.04-1.952 2.83 2.83 0 0 1 1.952-1.04 4.3 4.3 0 0 1 1.174 0c1.429.08 2.837.42 4.138 1.013l3.872 1.685M71.813 172.16a4.27 4.27 0 0 1 2.672.88 2.66 2.66 0 0 1 1.04 2.059 2.13 2.13 0 0 1-.64 1.525 28 28 0 0 1-9.909 5.637 19.64 19.64 0 0 0-9.35 6.41q5.174 3.004 10.689 5.345l11.061 4.864a2.16 2.16 0 0 1 1.36 2.112 3.47 3.47 0 0 1-1.413 3.232 5.6 5.6 0 0 1-3.606 1.28q-.805 0-1.552-.32a21 21 0 0 0-2.405-2.032 219 219 0 0 0-20.57-9.99 37 37 0 0 0-2.193-.826 2.67 2.67 0 0 1-1.605-1.872 8 8 0 0 1 2.672-5.85 53.3 53.3 0 0 1 11.088-6.198 48.5 48.5 0 0 0 11.115-6.25h1.546zm45.792-.213a15.5 15.5 0 0 0-3.365-3.712 6.08 6.08 0 0 0-3.605-1.094 3.2 3.2 0 0 0-1.254.24l-8.016 2.672a4.8 4.8 0 0 1-1.578.214 4.1 4.1 0 0 1-2.672-.747 11.7 11.7 0 0 1-2.432-2.965l-2.22 1.498a15.4 15.4 0 0 0 3.58 4.112 6.5 6.5 0 0 0 3.765.987q1.024-.01 2.005-.293l7.403-2.672a4.3 4.3 0 0 1 1.579-.294 3.73 3.73 0 0 1 2.298.614q1.408 1.152 2.406 2.672l2.112-1.174" fill="#ffb85b" fill-rule="nonzero"/><path d="M172.208 216.587c4.059 24.309-25.648 26.714-37.856 15.733-8.443-7.536-6.064-18.032 6.037-17.365 10.688.565 16.912 14.293 31.819 1.632m-90.267 0c-4.058 24.309 25.648 26.714 37.856 15.733 8.443-7.536 6.064-18.032-6.037-17.365-10.688.565-16.912 14.293-31.819 1.632" fill="#ffb85b" fill-rule="evenodd"/><path d="M111.141 181.323a8.53 8.53 0 0 0-5.024-1.414 8.27 8.27 0 0 0-5.85 2.139 7.36 7.36 0 0 0-2.032 6.81 12.1 12.1 0 0 0 2.672 6.331 6.65 6.65 0 0 0 5.344 2.672 8.25 8.25 0 0 0 3.925-1.066c2.405-1.44 3.579-4.166 3.579-8.256a8.59 8.59 0 0 0-2.614-7.216m-5.13 9.669a2.67 2.67 0 1 1 0-5.339 2.67 2.67 0 0 1 0 5.339m23.029 21.883q1.12 0 2.165-.4a8.5 8.5 0 0 0 1.872-1.014q.816-.661 1.526-1.44.66-.746 1.173-1.605a10.7 10.7 0 0 0 1.307-2.805v-.24a1 1 0 0 1-.134-.24 11.7 11.7 0 0 1-2.565 2.805 7.5 7.5 0 0 1-2.672 1.632 9.1 9.1 0 0 1-3.125.507 8.5 8.5 0 0 1-2.672-.374 7 7 0 0 1-2.06-1.066 10.45 10.45 0 0 1-3.018-3.931.5.5 0 0 0-.133.213v.214q.55 1.536 1.387 2.938.757 1.355 1.872 2.432 1.002 1.04 2.298 1.686a7.6 7.6 0 0 0 2.672.586m23.67-31.61a8.53 8.53 0 0 0-5.024-1.44 8.2 8.2 0 0 0-5.851 2.165 7.36 7.36 0 0 0-2.005 6.81 11.83 11.83 0 0 0 2.672 6.331 6.68 6.68 0 0 0 5.344 2.672 8.2 8.2 0 0 0 3.925-1.066 8.79 8.79 0 0 0 3.605-8.256c-.128-3.611-.986-6.043-2.666-7.216m-5.878 10.128a2.67 2.67 0 1 1 0-5.34 2.67 2.67 0 0 1 0 5.34" fill="#ffb85b" fill-rule="nonzero"/><path d="M205.435 53.072c-.603-.933-1.195-1.888-1.808-2.763-.491-.704-.992-1.344-1.488-2.01a80 80 0 0 0-2.208-2.864c-.443-.544-.891-1.046-1.34-1.563a75 75 0 0 0-2.48-2.736 75 75 0 0 0-4.042-3.856l-.682-.592c-12.166-10.379-24.491-13.013-32.406-14.747l-4.378-.986c-16.027-3.072-29.494-4.624-43.147-2.672a61.3 61.3 0 0 0-15.44 5.61c-6.704 3.046-13.68 6.198-20.41 6.678a29.23 29.23 0 0 0-17.153 12.288l-.746 1.066a36.8 36.8 0 0 0-2.672 24.043c1.472 4.81 3.285 9.51 4.997 14.027a129 129 0 0 1 8.47 28.72 53.4 53.4 0 0 1 4.111 11.008c2.272 7.909 4.864 16.805 11.888 23.722h.187l.176-.074.043.048c6.08-2.88 11.946-4.811 17.637-5.995.8-.165 1.59-.283 2.379-.416.96-.165 1.92-.336 2.869-.464q2.315-.299 4.592-.432l.4-.032c19.461-1.067 36.864 6.043 53.867 12.976l3.066 1.27c.096-.043.187-.155.283-.209l.155.064c4.165-1.818 6.277-15.813 9.082-28.853 10.096-23.11 32.672-40.075 31.312-61.445a101 101 0 0 0-5.114-8.811m-35.68 99.264-.038-.01-.016.01z" fill="#eae4d3" fill-rule="nonzero"/><path d="M167.856 140.715c-.037-.475-.235-.96-.379-1.44l-.005-.022c-1.797-5.861-11.392-12.01-24.459-15.338-.72-.192-1.456-.283-2.181-.448l-.096-.022a69 69 0 0 0-9.445-1.477l-.576-.053a69 69 0 0 0-5.408-.235c-1.59-.01-3.184.016-4.774.123a69 69 0 0 0-7.056.88c-.57.096-1.146.128-1.717.24a40.1 40.1 0 0 0-26.261 17.418l.346 14.134v.213h.16a78.4 78.4 0 0 1 30.187-9.883c16.912-1.525 34.224 3.632 51.13 15.44h.16v-.266a61.4 61.4 0 0 0 .374-19.264" fill="#e0d8c9" fill-rule="nonzero"/><path d="M69.2 42.032c-1.819 9.243 6.41 38.416 3.739 53.723-1.387-8.016-6.518-24.043-6.304-32.939-2.459-5.344-4.944-11.888-7.67-14.4s5.638-15.573 10.368-6.384" fill="#efe7d5" fill-rule="evenodd"/><path d="M87.872 135.963c-10.688-12.608-15.227-34.331-18.965-52.63C65.94 68.8 63.403 56.405 58.512 52.507a6.1 6.1 0 0 1-1.12-2.672 9.4 9.4 0 0 1 1.093-5.344 11.67 11.67 0 0 1 3.766-4.571 8 8 0 0 1 3.445-1.333v.24c-1.232.17-2.4.624-3.419 1.333a32 32 0 0 0-2.885 4.299c-2.405 4.81 2.672 4.57 4.57 7.184 4.945 3.978 5.345 17.045 8.337 31.632 3.738 18.272 4.97 39.94 15.68 52.496l-.16.186" fill="#cbbc9d" fill-rule="nonzero"/><path d="M87.472 38.267c-1.845 9.216 2.859 30.426 0 45.76-1.387-8.016-6.517-24.043-6.304-32.912-2.485-5.344-5.344-11.542-7.184-14.72s6.597-6.704 13.36 1.872" fill="#efe7d5" fill-rule="evenodd"/><path d="M83.893 35.008a6.03 6.03 0 0 0-5.344-1.227 4.8 4.8 0 0 0-2.058.747 2.35 2.35 0 0 0-1.014 1.579c0 .96-.746 1.12 0 2.912 5.984 8.016 10.688 21.557 11.808 35.85 1.606 18.139-.506 38.23 11.515 52.47l-.187.16c-12.074-14.32-13.866-34.438-15.44-52.603-1.28-14.267-2.432-27.355-8.362-35.397a5.6 5.6 0 0 1-1.414-4.112 2.67 2.67 0 0 1 1.094-1.739 4.5 4.5 0 0 1 2.218-.8 10.9 10.9 0 0 1 7.184 1.979l-.16.186" fill="#cbbc9d" fill-rule="nonzero"/><path d="M116.859 22.021c5.557 9.27-4.651 50.998-6.518 77.206-.16 2.218-19.717-86.528 6.464-77.206" fill="#efe7d5" fill-rule="nonzero"/><path d="M114.533 122.363a248.5 248.5 0 0 1-14.186-67.75 72.5 72.5 0 0 1 1.818-22.816c1.739-5.93 4.784-9.829 9.51-10.528a13 13 0 0 1 5.157.374v.24a12.3 12.3 0 0 0-5.13.16c-3.953.906-3.473 3.365-6.065 8.949a59.2 59.2 0 0 0-1.925 22.09c3.365 22.011 7.51 52.043 11.088 69.11h-.187m18.352-1.243c-.266-1.792-.506-3.605-.773-5.344-4.112-29.813-9.163-66.144 8.523-92.245h.213c-7.237 19.317-8.23 56.101-9.083 67.963-.373 5.13.214 16.026.614 24.042.24 1.846.533 3.659.773 5.478h-.267m19.184 3.925c.614-15.387 2.246-33.392 3.739-48.997 3.712-19.664 13.707-28.96 16.325-48.838V26.7a135.5 135.5 0 0 0-17.632 49.13 234.7 234.7 0 0 0-2.218 48.944h-.267" fill="#cbbc9d" fill-rule="nonzero"/><g fill="#cbbc9d" fill-rule="nonzero"><path d="M198.496 50.288c-8.016 24.683-17.472 48.81-27.088 73.227.267-32.326 17.579-71.227 27.088-73.227"/><path d="M166.71 134.384c4.218-4.379 4.517-11.115 4.89-18.939a62.9 62.9 0 0 1 4.219-23.43c0-.32.24-.826.426-1.524 2.352-8.15 11.728-40.982 22.656-40.395v.24c-8.576-.32-19.504 32.059-22.09 40.261-.187.667-.24 1.094-.347 1.44-3.072 8.016-3.259 16.027-4.272 23.35-.347 7.856-1.013 14.64-5.344 19.072h-.16"/></g></g></svg>
